<svg width="398" height="398" xmlns="http://www.w3.org/2000/svg" xmlns:xlink="http://www.w3.org/1999/xlink" xml:space="preserve" overflow="hidden"><defs><clipPath id="clip0"><rect x="82" y="19" width="398" height="398"/></clipPath></defs><g clip-path="url(#clip0)" transform="translate(-82 -19)"><path d="M217.876 268.405C207.793 268.405 200.189 273.16 200.189 279.462 200.189 285.764 207.793 290.519 217.876 290.519 227.958 290.519 235.566 285.764 235.566 279.462 235.566 273.16 227.962 268.405 217.876 268.405ZM217.876 282.227C214.52 282.549 211.165 281.617 208.456 279.611 208.456 278.782 212.096 276.709 217.876 276.709 223.336 276.709 227.212 278.649 227.212 279.474 227.212 280.217 223.336 282.227 217.876 282.227Z"/><path d="M325.667 228.331C335.754 228.331 343.357 223.576 343.357 217.274 343.357 210.973 335.754 206.218 325.667 206.218 315.58 206.218 307.981 210.973 307.981 217.274 307.981 223.576 315.585 228.331 325.667 228.331ZM325.667 214.509C331.127 214.509 335.004 216.478 335.004 217.274 335.004 218.07 331.127 220.04 325.667 220.04 322.31 220.38 318.948 219.446 316.248 217.424 316.24 216.607 319.888 214.509 325.667 214.509Z"/><path d="M218.526 210.467C214.294 210.467 210.857 212.602 210.857 215.235 210.857 217.867 214.294 220.002 218.526 220.002 222.759 220.002 226.196 217.871 226.196 215.235 226.196 212.598 222.763 210.467 218.526 210.467Z"/><path d="M411.585 248.057C411.585 250.461 407.873 252.41 403.294 252.41 398.714 252.41 395.002 250.461 395.002 248.057 395.002 245.653 398.714 243.704 403.294 243.704 407.873 243.704 411.585 245.653 411.585 248.057Z"/><path d="M232.908 236.519C232.908 236.735 232.95 236.934 232.962 237.154 235.803 237.602 238.693 238.016 241.631 238.398 241.366 237.813 241.224 237.179 241.217 236.536 241.217 231.217 251.859 225.268 266.092 225.268 280.324 225.268 290.967 231.217 290.967 236.536 290.846 238.148 290.103 239.65 288.894 240.723 292.21 240.649 295.436 240.504 298.649 240.334 299.05 239.107 299.257 237.826 299.262 236.536 299.262 225.566 284.698 216.976 266.096 216.976 247.493 216.976 232.908 225.55 232.908 236.519Z"/><path d="M367.354 253.907C363.194 257.137 357.969 258.675 352.723 258.215 352.172 258.215 351.691 258.165 351.168 258.14 345.674 259.392 340.008 260.498 334.17 261.457 339.685 265.015 346.165 266.779 352.723 266.506 366.081 266.506 376.147 260.702 376.147 253.032 376.136 252.404 376.057 251.778 375.911 251.167 373.116 252.104 370.272 253.036 367.354 253.907Z"/><path d="M173.884 246.519C166.716 246.785 161.032 249.861 161.032 253.654 161.032 257.622 167.218 260.839 174.85 260.839 182.483 260.839 188.668 257.622 188.668 253.654 188.648 253.031 188.485 252.421 188.191 251.871 183.222 250.219 178.453 248.435 173.884 246.519Z"/><path d="M308.362 264.583C299.474 265.292 290.341 265.677 281 265.677 278.687 265.677 276.398 265.636 274.114 265.594 263.028 268.911 255.851 275.179 255.851 282.675 255.851 293.902 271.892 302.368 293.164 302.368 314.436 302.368 330.476 293.902 330.476 282.675 330.472 274.342 321.629 267.539 308.362 264.583ZM293.16 294.076C275.44 294.076 264.139 287.322 264.139 282.675 264.139 278.028 275.44 271.274 293.16 271.274 310.879 271.274 322.181 278.028 322.181 282.675 322.181 287.322 310.875 294.076 293.16 294.076Z"/><path d="M281 108.135C192.656 108.135 123.458 140.917 123.458 182.76L123.458 255.313C123.458 297.156 192.652 329.938 281 329.938 369.348 329.938 438.542 297.156 438.542 255.313L438.542 182.76C438.542 140.917 369.339 108.135 281 108.135ZM281 116.427C361.902 116.427 430.25 146.804 430.25 182.76 430.25 193.826 423.758 204.36 412.423 213.647 384.459 193.639 336.513 180.688 281 180.688 225.487 180.688 177.537 193.639 149.577 213.647 138.238 204.36 131.75 193.826 131.75 182.76 131.75 146.804 200.094 116.427 281 116.427ZM405.101 219.036C378.066 236.992 332.039 249.094 281 249.094 229.961 249.094 183.929 236.992 156.894 219.036 183.925 201.081 229.952 188.979 281 188.979 332.048 188.979 378.066 201.081 405.101 219.036ZM131.75 207.076C134.911 211.489 138.593 215.505 142.716 219.036 138.593 222.568 134.911 226.584 131.75 230.997ZM281 321.646C200.098 321.646 131.75 291.269 131.75 255.313 131.75 244.247 138.242 233.713 149.577 224.426 177.532 244.434 225.479 257.385 281 257.385 336.521 257.385 384.463 244.434 412.423 224.426 423.753 233.713 430.25 244.247 430.25 255.313 430.25 291.269 361.898 321.646 281 321.646ZM430.25 230.997C427.089 226.584 423.407 222.568 419.284 219.036 423.407 215.505 427.089 211.489 430.25 207.076Z"/></g></svg>