<svg width="96" height="96" xmlns="http://www.w3.org/2000/svg" xmlns:xlink="http://www.w3.org/1999/xlink" xml:space="preserve" overflow="hidden"><defs><clipPath id="clip0"><rect x="587" y="151" width="96" height="96"/></clipPath></defs><g clip-path="url(#clip0)" transform="translate(-587 -151)"><path d="M624 161C625.657 161 627 159.657 627 158 627 156.343 625.657 155 624 155 622.343 155 621 156.343 621 158 621 159.657 622.343 161 624 161ZM624 157C624.552 157 625 157.448 625 158 625 158.552 624.552 159 624 159 623.448 159 623 158.552 623 158 623 157.448 623.448 157 624 157Z"/><path d="M643 167C645.209 167 647 165.209 647 163 647 160.791 645.209 159 643 159 640.791 159 639 160.791 639 163 639 165.209 640.791 167 643 167ZM643 161C644.105 161 645 161.895 645 163 645 164.105 644.105 165 643 165 641.895 165 641 164.105 641 163 641 161.895 641.895 161 643 161Z"/><path d="M627 179C630.314 179 633 176.314 633 173 633 169.686 630.314 167 627 167 623.686 167 621 169.686 621 173 621.004 176.312 623.688 178.996 627 179ZM627 169C629.209 169 631 170.791 631 173 631 175.209 629.209 177 627 177 624.791 177 623 175.209 623 173 623 170.791 624.791 169 627 169Z"/><path d="M641 179C642.657 179 644 177.657 644 176 644 174.343 642.657 173 641 173 639.343 173 638 174.343 638 176 638 177.657 639.343 179 641 179ZM641 175C641.552 175 642 175.448 642 176 642 176.552 641.552 177 641 177 640.448 177 640 176.552 640 176 640 175.448 640.448 175 641 175Z"/><path d="M661.924 183.617C661.769 183.243 661.404 183 661 183L609 183C608.448 183 608 183.448 608 184 608 184.265 608.106 184.52 608.293 184.707L610.535 186.95C611.476 187.885 612.003 189.158 612 190.485L612 238C612.003 240.76 614.24 242.997 617 243L653 243C655.76 242.997 657.997 240.76 658 238L658 190.485C657.997 189.158 658.524 187.885 659.465 186.95L661.707 184.707C661.993 184.421 662.079 183.991 661.924 183.617ZM653 241 617 241C615.343 241 614 239.657 614 238L614 195.991C620.279 196.025 626.531 195.187 632.579 193.5 635.635 192.565 638.805 192.061 642 192 646.112 191.96 650.193 192.711 654.021 194.213 654.669 194.462 655.329 194.676 656 194.855L656 238C656 239.657 654.657 241 653 241ZM658.049 185.537C656.737 186.85 656 188.629 656 190.485L656 192.785C655.625 192.666 655.191 192.51 654.7 192.333 650.653 190.758 646.343 189.967 642 190 638.635 190.055 635.294 190.581 632.075 191.563 626.194 193.216 620.109 194.033 614 193.992L614 190.485C614 188.63 613.264 186.851 611.952 185.539L611.431 185.017C611.422 185.008 611.425 185 611.438 185L658.562 185C658.575 185 658.578 185.008 658.569 185.017Z"/><path d="M637 200 649 200 649 202 637 202Z"/><path d="M637 208 649 208 649 210 637 210Z"/><path d="M637 216 649 216 649 218 637 218Z"/><path d="M637 224 649 224 649 226 637 226Z"/><path d="M637 232 649 232 649 234 637 234Z"/></g></svg>