<svg width="258" height="258" xmlns="http://www.w3.org/2000/svg" xmlns:xlink="http://www.w3.org/1999/xlink" xml:space="preserve" overflow="hidden"><defs><clipPath id="clip0"><rect x="842" y="89" width="258" height="258"/></clipPath></defs><g clip-path="url(#clip0)" transform="translate(-842 -89)"><path d="M925.312 263.688 1016.69 263.688 1016.69 172.312 925.312 172.312ZM930.688 177.688 1011.31 177.688 1011.31 258.312 930.688 258.312Z"/><path d="M1067.75 166.938 1067.75 161.562 1043.56 161.562 1043.56 158.875C1043.55 151.457 1037.54 145.446 1030.12 145.438L1027.44 145.438 1027.44 121.25 1022.06 121.25 1022.06 145.438 1005.94 145.438 1005.94 121.25 1000.56 121.25 1000.56 145.438 984.438 145.438 984.438 121.25 979.062 121.25 979.062 145.438 962.938 145.438 962.938 121.25 957.562 121.25 957.562 145.438 941.438 145.438 941.438 121.25 936.062 121.25 936.062 145.438 919.938 145.438 919.938 121.25 914.562 121.25 914.562 145.438 911.875 145.438C904.457 145.446 898.446 151.457 898.438 158.875L898.438 161.562 874.25 161.562 874.25 166.938 898.438 166.938 898.438 183.062 874.25 183.062 874.25 188.438 898.438 188.438 898.438 204.562 874.25 204.562 874.25 209.938 898.438 209.938 898.438 226.062 874.25 226.062 874.25 231.438 898.438 231.438 898.438 247.562 874.25 247.562 874.25 252.938 898.438 252.938 898.438 269.062 874.25 269.062 874.25 274.438 898.438 274.438 898.438 277.125C898.446 284.543 904.457 290.554 911.875 290.562L914.562 290.562 914.562 314.75 919.938 314.75 919.938 290.562 936.062 290.562 936.062 314.75 941.438 314.75 941.438 290.562 957.562 290.562 957.562 314.75 962.938 314.75 962.938 290.562 979.062 290.562 979.062 314.75 984.438 314.75 984.438 290.562 1000.56 290.562 1000.56 314.75 1005.94 314.75 1005.94 290.562 1022.06 290.562 1022.06 314.75 1027.44 314.75 1027.44 290.562 1030.12 290.562C1037.54 290.554 1043.55 284.543 1043.56 277.125L1043.56 274.438 1067.75 274.438 1067.75 269.062 1043.56 269.062 1043.56 252.938 1067.75 252.938 1067.75 247.562 1043.56 247.562 1043.56 231.438 1067.75 231.438 1067.75 226.062 1043.56 226.062 1043.56 209.938 1067.75 209.938 1067.75 204.562 1043.56 204.562 1043.56 188.438 1067.75 188.438 1067.75 183.062 1043.56 183.062 1043.56 166.938ZM1038.19 277.125C1038.19 281.578 1034.58 285.188 1030.12 285.188L911.875 285.188C907.422 285.188 903.812 281.578 903.812 277.125L903.812 158.875C903.812 154.422 907.422 150.812 911.875 150.812L1030.12 150.812C1034.58 150.812 1038.19 154.422 1038.19 158.875Z"/></g></svg>